<svg width="111" height="65" viewBox="0 0 111 65" fill="none" xmlns="http://www.w3.org/2000/svg">
<path d="M3.7272 8.3912H0.352176V5.4564H10.3305V8.3912H6.95547V26H3.7272V8.3912ZM16.5892 26.2935C15.024 26.2935 13.8305 25.8533 13.0087 24.9728C12.187 24.0728 11.7761 22.7913 11.7761 21.1282V5.4564H15.0044V21.363C15.0044 22.0674 15.1413 22.5761 15.4153 22.8891C15.7087 23.2022 16.1196 23.3587 16.6479 23.3587C17.1761 23.3587 17.5772 23.2022 17.8511 22.8891C18.1446 22.5761 18.2914 22.0674 18.2914 21.363V5.4564H21.4023V21.1282C21.4023 22.7913 20.9914 24.0728 20.1696 24.9728C19.3479 25.8533 18.1544 26.2935 16.5892 26.2935ZM23.7015 5.4564H28.4852C30.1483 5.4564 31.3613 5.84771 32.1244 6.63032C32.8874 7.39337 33.2689 8.57707 33.2689 10.1814V11.4434C33.2689 13.576 32.5646 14.926 31.1559 15.4934V15.5521C31.9385 15.7869 32.4863 16.2662 32.7994 16.9902C33.132 17.7141 33.2983 18.6826 33.2983 19.8956V23.5054C33.2983 24.0924 33.3178 24.5717 33.357 24.9435C33.3961 25.2956 33.4939 25.6478 33.6505 26H30.3635C30.2461 25.6674 30.1678 25.3543 30.1287 25.0609C30.0896 24.7674 30.07 24.2391 30.07 23.4761V19.7195C30.07 18.7804 29.9135 18.125 29.6004 17.7532C29.307 17.3815 28.7885 17.1956 28.045 17.1956H26.9298V26H23.7015V5.4564ZM28.1037 14.2608C28.7493 14.2608 29.2287 14.0945 29.5417 13.7619C29.8743 13.4293 30.0407 12.8717 30.0407 12.0891V10.5043C30.0407 9.76078 29.9037 9.22273 29.6298 8.89012C29.3754 8.55751 28.9646 8.3912 28.3972 8.3912H26.9298V14.2608H28.1037ZM35.5381 5.4564H38.7664V26H35.5381V5.4564ZM41.1842 5.4564H45.2342L48.3744 17.7532H48.4331V5.4564H51.3092V26H47.9929L44.119 11.0032H44.0603V26H41.1842V5.4564ZM58.2869 26.2935C56.7217 26.2935 55.5282 25.8533 54.7065 24.9728C53.8847 24.0728 53.4739 22.7913 53.4739 21.1282V10.3282C53.4739 8.66512 53.8847 7.39337 54.7065 6.51293C55.5282 5.61293 56.7217 5.16292 58.2869 5.16292C59.8522 5.16292 61.0457 5.61293 61.8674 6.51293C62.6891 7.39337 63.1 8.66512 63.1 10.3282V12.0891H60.0478V10.1227C60.0478 8.77273 59.4902 8.09772 58.375 8.09772C57.2598 8.09772 56.7022 8.77273 56.7022 10.1227V21.363C56.7022 22.6935 57.2598 23.3587 58.375 23.3587C59.4902 23.3587 60.0478 22.6935 60.0478 21.363V17.3423H58.4337V14.4075H63.1V21.1282C63.1 22.7913 62.6891 24.0728 61.8674 24.9728C61.0457 25.8533 59.8522 26.2935 58.2869 26.2935ZM65.1727 5.4564H68.401V23.0652H73.713V26H65.1727V5.4564ZM77.8703 5.4564H82.2432L85.5888 26H82.3606L81.7736 21.9206V21.9793H78.1051L77.5181 26H74.5246L77.8703 5.4564ZM81.3921 19.1913L79.954 9.03686H79.8953L78.4866 19.1913H81.3921ZM87.155 5.4564H91.2051L94.3453 17.7532H94.404V5.4564H97.2801V26H93.9638L90.0898 11.0032H90.0312V26H87.155V5.4564ZM99.6795 5.4564H104.61C106.214 5.4564 107.418 5.88684 108.22 6.74772C109.022 7.60859 109.423 8.87055 109.423 10.5336V20.9228C109.423 22.5859 109.022 23.8478 108.22 24.7087C107.418 25.5696 106.214 26 104.61 26H99.6795V5.4564ZM104.551 23.0652C105.08 23.0652 105.481 22.9087 105.755 22.5956C106.048 22.2826 106.195 21.7739 106.195 21.0695V10.3869C106.195 9.68252 106.048 9.17382 105.755 8.86077C105.481 8.54773 105.08 8.3912 104.551 8.3912H102.908V23.0652H104.551Z" fill="white"/>
<path d="M56.8349 45.1478L52.5196 32.1045H56.3157L58.7492 40.4431H58.8141L61.2475 32.1045H64.7192L60.4039 45.1478V54.8167H56.8349V45.1478ZM67.5957 32.1045H72.4302L76.129 54.8167H72.56L71.911 50.3067V50.3716H67.8553L67.2064 54.8167H63.8969L67.5957 32.1045ZM71.4892 47.2892L69.8994 36.0629H69.8345L68.2771 47.2892H71.4892ZM76.5734 32.1045H80.0126L81.6025 49.5604H81.6674L83.3546 32.1045H87.2481L88.9353 49.5604H89.0001L90.59 32.1045H93.6724L91.3687 54.8167H86.9236L85.3013 39.5022H85.2364L83.6141 54.8167H78.877L76.5734 32.1045ZM95.4777 32.1045H99.9552L103.427 45.6994H103.492V32.1045H106.671V54.8167H103.005L98.7222 38.2368H98.6574V54.8167H95.4777V32.1045Z" fill="white"/>
<path d="M5.34473 55.4343V34.6216H28.7442V41.6913H45.4482V55.4343" stroke="#FD9458" stroke-width="4.71463"/>
</svg>
